<svg width="1100" height="1100" viewBox="0 0 1100 1100" fill="none" xmlns="http://www.w3.org/2000/svg">
<rect x="300" y="300" width="100" height="100" fill="white"/>
<rect x="200" y="200" width="100" height="100" fill="white"/>
<rect x="400" y="400" width="100" height="100" fill="white"/>
<rect x="700" y="700" width="100" height="100" fill="white"/>
<rect x="800" y="800" width="100" height="100" fill="white"/>
<rect x="900" y="900" width="200" height="200" fill="white"/>
<rect x="1000" y="600" width="100" height="300" fill="white"/>
<rect x="600" y="1000" width="300" height="100" fill="white"/>
<rect x="200" y="200" width="200" height="200" transform="rotate(-180 200 200)" fill="white"/>
<rect x="100" y="500" width="100" height="300" transform="rotate(-180 100 500)" fill="white"/>
<rect x="500" y="100" width="300" height="100" transform="rotate(-180 500 100)" fill="white"/>
<rect x="600" y="600" width="100" height="100" fill="white"/>
<rect x="500" y="500" width="100" height="100" fill="white"/>
</svg>
