{"asset":{"version":"2.0","generator":"Blockbench 4.10.4 glTF exporter"},"scenes":[{"nodes":[24],"name":"blockbench_export"}],"scene":0,"nodes":[{"translation":[-0.46875,-1.40625,-0.46875],"name":"Head","mesh":0},{"translation":[-0.46875,-1.40625,-0.46875],"name":"Hat Layer","mesh":1},{"translation":[-0.46875,-1.40625,-0.46875],"name":"Head","mesh":2},{"translation":[-0.46875,-1.40625,-0.46875],"name":"Hat Layer","mesh":3},{"translation":[0,0.703125,0],"name":"head","children":[0,1,2,3]},{"translation":[-0.46875,-0.703125,-0.46875],"name":"Body","mesh":4},{"translation":[-0.46875,-0.703125,-0.46875],"name":"Body Layer","mesh":5},{"name":"body","children":[4,5,6]},{"translation":[-0.580078125,-0.703125,-0.474609375],"name":"Right Leg","mesh":6},{"translation":[-0.580078125,-0.703125,-0.474609375],"name":"Right Leg Layer","mesh":7},{"translation":[0.111328125,0,0.005859375],"name":"rightleg","children":[8,9]},{"translation":[-0.357421875,-0.703125,-0.474609375],"name":"Left Leg","mesh":8},{"translation":[-0.357421875,-0.703125,-0.474609375],"name":"Left Leg Layer","mesh":9},{"translation":[-0.111328125,0,0.005859375],"name":"leftleg","children":[11,12]},{"translation":[-0.76171875,-1.2890625,-0.46875],"name":"Right Arm","mesh":10},{"translation":[-0.76171875,-1.2890625,-0.46875],"name":"Right Arm Layer","mesh":11},{"translation":[0.29296875,0.5859375,0],"name":"rightarm","children":[14,15]},{"translation":[-0.17578125,-1.2890625,-0.46875],"name":"Left Arm","mesh":12},{"translation":[-0.17578125,-1.2890625,-0.46875],"name":"Left Arm Layer","mesh":13},{"translation":[-0.17578125,-1.2890625,-0.46875],"name":"Left Arm","mesh":14},{"translation":[-0.17578125,-1.2890625,-0.46875],"name":"Left Arm Layer","mesh":15},{"translation":[-0.29296875,0.5859375,0],"name":"leftarm","children":[17,18,19,20]},{"translation":[0,0.703125,0],"name":"hips","children":[7,10,13,16,21]},{"name":"root","children":[22]},{"children":[23]}],"bufferViews":[{"buffer":0,"byteOffset":0,"byteLength":288,"target":34962,"byteStride":12},{"buffer":0,"byteOffset":288,"byteLength":288,"target":34962,"byteStride":12},{"buffer":0,"byteOffset":576,"byteLength":192,"target":34962,"byteStride":8},{"buffer":0,"byteOffset":768,"byteLength":72,"target":34963},{"buffer":0,"byteOffset":840,"byteLength":288,"target":34962,"byteStride":12},{"buffer":0,"byteOffset":1128,"byteLength":288,"target":34962,"byteStride":12},{"buffer":0,"byteOffset":1416,"byteLength":192,"target":34962,"byteStride":8},{"buffer":0,"byteOffset":1608,"byteLength":72,"target":34963},{"buffer":0,"byteOffset":1680,"byteLength":288,"target":34962,"byteStride":12},{"buffer":0,"byteOffset":1968,"byteLength":288,"target":34962,"byteStride":12},{"buffer":0,"byteOffset":2256,"byteLength":192,"target":34962,"byteStride":8},{"buffer":0,"byteOffset":2448,"byteLength":72,"target":34963},{"buffer":0,"byteOffset":2520,"byteLength":288,"target":34962,"byteStride":12},{"buffer":0,"byteOffset":2808,"byteLength":288,"target":34962,"byteStride":12},{"buffer":0,"byteOffset":3096,"byteLength":192,"target":34962,"byteStride":8},{"buffer":0,"byteOffset":3288,"byteLength":72,"target":34963},{"buffer":0,"byteOffset":3360,"byteLength":288,"target":34962,"byteStride":12},{"buffer":0,"byteOffset":3648,"byteLength":288,"target":34962,"byteStride":12},{"buffer":0,"byteOffset":3936,"byteLength":192,"target":34962,"byteStride":8},{"buffer":0,"byteOffset":4128,"byteLength":72,"target":34963},{"buffer":0,"byteOffset":4200,"byteLength":288,"target":34962,"byteStride":12},{"buffer":0,"byteOffset":4488,"byteLength":288,"target":34962,"byteStride":12},{"buffer":0,"byteOffset":4776,"byteLength":192,"target":34962,"byteStride":8},{"buffer":0,"byteOffset":4968,"byteLength":72,"target":34963},{"buffer":0,"byteOffset":5040,"byteLength":288,"target":34962,"byteStride":12},{"buffer":0,"byteOffset":5328,"byteLength":288,"target":34962,"byteStride":12},{"buffer":0,"byteOffset":5616,"byteLength":192,"target":34962,"byteStride":8},{"buffer":0,"byteOffset":5808,"byteLength":72,"target":34963},{"buffer":0,"byteOffset":5880,"byteLength":288,"target":34962,"byteStride":12},{"buffer":0,"byteOffset":6168,"byteLength":288,"target":34962,"byteStride":12},{"buffer":0,"byteOffset":6456,"byteLength":192,"target":34962,"byteStride":8},{"buffer":0,"byteOffset":6648,"byteLength":72,"target":34963},{"buffer":0,"byteOffset":6720,"byteLength":288,"target":34962,"byteStride":12},{"buffer":0,"byteOffset":7008,"byteLength":288,"target":34962,"byteStride":12},{"buffer":0,"byteOffset":7296,"byteLength":192,"target":34962,"byteStride":8},{"buffer":0,"byteOffset":7488,"byteLength":72,"target":34963},{"buffer":0,"byteOffset":7560,"byteLength":288,"target":34962,"byteStride":12},{"buffer":0,"byteOffset":7848,"byteLength":288,"target":34962,"byteStride":12},{"buffer":0,"byteOffset":8136,"byteLength":192,"target":34962,"byteStride":8},{"buffer":0,"byteOffset":8328,"byteLength":72,"target":34963},{"buffer":0,"byteOffset":8400,"byteLength":288,"target":34962,"byteStride":12},{"buffer":0,"byteOffset":8688,"byteLength":288,"target":34962,"byteStride":12},{"buffer":0,"byteOffset":8976,"byteLength":192,"target":34962,"byteStride":8},{"buffer":0,"byteOffset":9168,"byteLength":72,"target":34963},{"buffer":0,"byteOffset":9240,"byteLength":288,"target":34962,"byteStride":12},{"buffer":0,"byteOffset":9528,"byteLength":288,"target":34962,"byteStride":12},{"buffer":0,"byteOffset":9816,"byteLength":192,"target":34962,"byteStride":8},{"buffer":0,"byteOffset":10008,"byteLength":72,"target":34963},{"buffer":0,"byteOffset":10080,"byteLength":288,"target":34962,"byteStride":12},{"buffer":0,"byteOffset":10368,"byteLength":288,"target":34962,"byteStride":12},{"buffer":0,"byteOffset":10656,"byteLength":192,"target":34962,"byteStride":8},{"buffer":0,"byteOffset":10848,"byteLength":72,"target":34963},{"buffer":0,"byteOffset":10920,"byteLength":288,"target":34962,"byteStride":12},{"buffer":0,"byteOffset":11208,"byteLength":288,"target":34962,"byteStride":12},{"buffer":0,"byteOffset":11496,"byteLength":192,"target":34962,"byteStride":8},{"buffer":0,"byteOffset":11688,"byteLength":72,"target":34963},{"buffer":0,"byteOffset":11760,"byteLength":288,"target":34962,"byteStride":12},{"buffer":0,"byteOffset":12048,"byteLength":288,"target":34962,"byteStride":12},{"buffer":0,"byteOffset":12336,"byteLength":192,"target":34962,"byteStride":8},{"buffer":0,"byteOffset":12528,"byteLength":72,"target":34963},{"buffer":0,"byteOffset":12600,"byteLength":288,"target":34962,"byteStride":12},{"buffer":0,"byteOffset":12888,"byteLength":288,"target":34962,"byteStride":12},{"buffer":0,"byteOffset":13176,"byteLength":192,"target":34962,"byteStride":8},{"buffer":0,"byteOffset":13368,"byteLength":72,"target":34963},{"buffer":0,"byteOffset":13440,"byteLength":208},{"buffer":0,"byteOffset":13648,"byteLength":832},{"buffer":0,"byteOffset":14480,"byteLength":208},{"buffer":0,"byteOffset":14688,"byteLength":624},{"buffer":0,"byteOffset":15312,"byteLength":208},{"buffer":0,"byteOffset":15520,"byteLength":832},{"buffer":0,"byteOffset":16352,"byteLength":208},{"buffer":0,"byteOffset":16560,"byteLength":832},{"buffer":0,"byteOffset":17392,"byteLength":148},{"buffer":0,"byteOffset":17540,"byteLength":444},{"buffer":0,"byteOffset":17984,"byteLength":208},{"buffer":0,"byteOffset":18192,"byteLength":832},{"buffer":0,"byteOffset":19024,"byteLength":124},{"buffer":0,"byteOffset":19148,"byteLength":372},{"buffer":0,"byteOffset":19520,"byteLength":208},{"buffer":0,"byteOffset":19728,"byteLength":832},{"buffer":0,"byteOffset":20560,"byteLength":208},{"buffer":0,"byteOffset":20768,"byteLength":624},{"buffer":0,"byteOffset":21392,"byteLength":208},{"buffer":0,"byteOffset":21600,"byteLength":832},{"buffer":0,"byteOffset":22432,"byteLength":208},{"buffer":0,"byteOffset":22640,"byteLength":624}],"buffers":[{"byteLength":23264,"uri":"data:application/octet-stream;base64,"}],"accessors":[{"bufferView":0,"componentType":5126,"count":24,"max":[0.703125,1.875,0.703125],"min":[0.234375,1.40625,0.234375],"type":"VEC3"},{"bufferView":1,"componentType":5126,"count":24,"max":[1,1,1],"min":[-1,-1,-1],"type":"VEC3"},{"bufferView":2,"componentType":5126,"count":24,"max":[0.5,0.25],"min":[0,0],"type":"VEC2"},{"bufferView":3,"componentType":5123,"count":36,"max":[23],"min":[0],"type":"SCALAR"},{"bufferView":4,"componentType":5126,"count":24,"max":[0.732421875,1.904296875,0.732421875],"min":[0.205078125,1.376953125,0.205078125],"type":"VEC3"},{"bufferView":5,"componentType":5126,"count":24,"max":[1,1,1],"min":[-1,-1,-1],"type":"VEC3"},{"bufferView":6,"componentType":5126,"count":24,"max":[1,0.25],"min":[0.5,0],"type":"VEC2"},{"bufferView":7,"componentType":5123,"count":36,"max":[23],"min":[0],"type":"SCALAR"},{"bufferView":8,"componentType":5126,"count":24,"max":[0.703125,1.875,0.703125],"min":[0.234375,1.40625,0.234375],"type":"VEC3"},{"bufferView":9,"componentType":5126,"count":24,"max":[1,1,1],"min":[-1,-1,-1],"type":"VEC3"},{"bufferView":10,"componentType":5126,"count":24,"max":[0.5,0.25],"min":[0,0],"type":"VEC2"},{"bufferView":11,"componentType":5123,"count":36,"max":[23],"min":[0],"type":"SCALAR"},{"bufferView":12,"componentType":5126,"count":24,"max":[0.732421875,1.904296875,0.732421875],"min":[0.205078125,1.376953125,0.205078125],"type":"VEC3"},{"bufferView":13,"componentType":5126,"count":24,"max":[1,1,1],"min":[-1,-1,-1],"type":"VEC3"},{"bufferView":14,"componentType":5126,"count":24,"max":[1,0.25],"min":[0.5,0],"type":"VEC2"},{"bufferView":15,"componentType":5123,"count":36,"max":[23],"min":[0],"type":"SCALAR"},{"bufferView":16,"componentType":5126,"count":24,"max":[0.703125,1.40625,0.5859375],"min":[0.234375,0.703125,0.3515625],"type":"VEC3"},{"bufferView":17,"componentType":5126,"count":24,"max":[1,1,1],"min":[-1,-1,-1],"type":"VEC3"},{"bufferView":18,"componentType":5126,"count":24,"max":[0.625,0.5],"min":[0.25,0.25],"type":"VEC2"},{"bufferView":19,"componentType":5123,"count":36,"max":[23],"min":[0],"type":"SCALAR"},{"bufferView":20,"componentType":5126,"count":24,"max":[0.7177737355232239,1.4208987951278687,0.6005862355232239],"min":[0.21972624957561493,0.6884762644767761,0.3369137644767761],"type":"VEC3"},{"bufferView":21,"componentType":5126,"count":24,"max":[1,1,1],"min":[-1,-1,-1],"type":"VEC3"},{"bufferView":22,"componentType":5126,"count":24,"max":[0.625,0.75],"min":[0.25,0.5],"type":"VEC2"},{"bufferView":23,"componentType":5123,"count":36,"max":[23],"min":[0],"type":"SCALAR"},{"bufferView":24,"componentType":5126,"count":24,"max":[0.697265625,0.703125,0.591796875],"min":[0.462890625,0,0.357421875],"type":"VEC3"},{"bufferView":25,"componentType":5126,"count":24,"max":[1,1,1],"min":[-1,-1,-1],"type":"VEC3"},{"bufferView":26,"componentType":5126,"count":24,"max":[0.25,0.5],"min":[0,0.25],"type":"VEC2"},{"bufferView":27,"componentType":5123,"count":36,"max":[23],"min":[0],"type":"SCALAR"},{"bufferView":28,"componentType":5126,"count":24,"max":[0.7119143605232239,0.7177737355232239,0.6064456105232239],"min":[0.4482418894767761,-0.01464875042438507,0.3427731394767761],"type":"VEC3"},{"bufferView":29,"componentType":5126,"count":24,"max":[1,1,1],"min":[-1,-1,-1],"type":"VEC3"},{"bufferView":30,"componentType":5126,"count":24,"max":[0.25,0.75],"min":[0,0.5],"type":"VEC2"},{"bufferView":31,"componentType":5123,"count":36,"max":[23],"min":[0],"type":"SCALAR"},{"bufferView":32,"componentType":5126,"count":24,"max":[0.474609375,0.703125,0.591796875],"min":[0.240234375,0,0.357421875],"type":"VEC3"},{"bufferView":33,"componentType":5126,"count":24,"max":[1,1,1],"min":[-1,-1,-1],"type":"VEC3"},{"bufferView":34,"componentType":5126,"count":24,"max":[0.5,1],"min":[0.25,0.75],"type":"VEC2"},{"bufferView":35,"componentType":5123,"count":36,"max":[23],"min":[0],"type":"SCALAR"},{"bufferView":36,"componentType":5126,"count":24,"max":[0.4892581105232239,0.7177737355232239,0.6064456105232239],"min":[0.22558562457561493,-0.01464875042438507,0.3427731394767761],"type":"VEC3"},{"bufferView":37,"componentType":5126,"count":24,"max":[1,1,1],"min":[-1,-1,-1],"type":"VEC3"},{"bufferView":38,"componentType":5126,"count":24,"max":[0.25,1],"min":[0,0.75],"type":"VEC2"},{"bufferView":39,"componentType":5123,"count":36,"max":[23],"min":[0],"type":"SCALAR"},{"bufferView":40,"componentType":5126,"count":24,"max":[0.9375,1.40625,0.5859375],"min":[0.703125,0.703125,0.3515625],"type":"VEC3"},{"bufferView":41,"componentType":5126,"count":24,"max":[1,1,1],"min":[-1,-1,-1],"type":"VEC3"},{"bufferView":42,"componentType":5126,"count":24,"max":[0.875,0.5],"min":[0.625,0.25],"type":"VEC2"},{"bufferView":43,"componentType":5123,"count":36,"max":[23],"min":[0],"type":"SCALAR"},{"bufferView":44,"componentType":5126,"count":24,"max":[0.9521487355232239,1.4208987951278687,0.6005862355232239],"min":[0.6884762644767761,0.6884762644767761,0.3369137644767761],"type":"VEC3"},{"bufferView":45,"componentType":5126,"count":24,"max":[1,1,1],"min":[-1,-1,-1],"type":"VEC3"},{"bufferView":46,"componentType":5126,"count":24,"max":[0.875,0.75],"min":[0.625,0.5],"type":"VEC2"},{"bufferView":47,"componentType":5123,"count":36,"max":[23],"min":[0],"type":"SCALAR"},{"bufferView":48,"componentType":5126,"count":24,"max":[0.234375,1.40625,0.5859375],"min":[0,0.703125,0.3515625],"type":"VEC3"},{"bufferView":49,"componentType":5126,"count":24,"max":[1,1,1],"min":[-1,-1,-1],"type":"VEC3"},{"bufferView":50,"componentType":5126,"count":24,"max":[0.75,1],"min":[0.5,0.75],"type":"VEC2"},{"bufferView":51,"componentType":5123,"count":36,"max":[23],"min":[0],"type":"SCALAR"},{"bufferView":52,"componentType":5126,"count":24,"max":[0.24902375042438507,1.4208987951278687,0.6005862355232239],"min":[-0.01464875042438507,0.6884762644767761,0.3369137644767761],"type":"VEC3"},{"bufferView":53,"componentType":5126,"count":24,"max":[1,1,1],"min":[-1,-1,-1],"type":"VEC3"},{"bufferView":54,"componentType":5126,"count":24,"max":[1,1],"min":[0.75,0.75],"type":"VEC2"},{"bufferView":55,"componentType":5123,"count":36,"max":[23],"min":[0],"type":"SCALAR"},{"bufferView":56,"componentType":5126,"count":24,"max":[0.234375,1.40625,0.5859375],"min":[0,0.703125,0.3515625],"type":"VEC3"},{"bufferView":57,"componentType":5126,"count":24,"max":[1,1,1],"min":[-1,-1,-1],"type":"VEC3"},{"bufferView":58,"componentType":5126,"count":24,"max":[0.75,1],"min":[0.5,0.75],"type":"VEC2"},{"bufferView":59,"componentType":5123,"count":36,"max":[23],"min":[0],"type":"SCALAR"},{"bufferView":60,"componentType":5126,"count":24,"max":[0.24902375042438507,1.4208987951278687,0.6005862355232239],"min":[-0.01464875042438507,0.6884762644767761,0.3369137644767761],"type":"VEC3"},{"bufferView":61,"componentType":5126,"count":24,"max":[1,1,1],"min":[-1,-1,-1],"type":"VEC3"},{"bufferView":62,"componentType":5126,"count":24,"max":[1,1],"min":[0.75,0.75],"type":"VEC2"},{"bufferView":63,"componentType":5123,"count":36,"max":[23],"min":[0],"type":"SCALAR"},{"bufferView":64,"componentType":5126,"count":52,"max":[3],"min":[0],"type":"SCALAR"},{"bufferView":65,"componentType":5126,"count":52,"max":[0.10608883947134018,0.011384447105228901,0.1066979244351387,0.9999619126319885],"min":[0,-0.009295858442783356,-0.08932889252901077,0.9886155724525452],"type":"VEC4"},{"bufferView":66,"componentType":5126,"count":52,"max":[3],"min":[0],"type":"SCALAR"},{"bufferView":67,"componentType":5126,"count":52,"max":[0.125,0,0],"min":[-0.125,0,-0.125],"type":"VEC3"},{"bufferView":68,"componentType":5126,"count":52,"max":[3],"min":[0],"type":"SCALAR"},{"bufferView":69,"componentType":5126,"count":52,"max":[0.007008664309978485,-0.004718806128948927,0.08905351907014847,0.9985914826393127],"min":[-0.19664953649044037,-0.09330901503562927,-0.1096896082162857,0.9743073582649231],"type":"VEC4"},{"bufferView":70,"componentType":5126,"count":52,"max":[3],"min":[0],"type":"SCALAR"},{"bufferView":71,"componentType":5126,"count":52,"max":[0.3207961916923523,0.10548184812068939,0.4060169756412506,0.9714500904083252],"min":[-0.25465571880340576,-0.2124367207288742,-0.3678589165210724,0.852818489074707],"type":"VEC4"},{"bufferView":72,"componentType":5126,"count":37,"max":[2.75],"min":[0],"type":"SCALAR"},{"bufferView":73,"componentType":5126,"count":37,"max":[0.29296875,0.5859375,0.09375],"min":[0.29296875,0.5859375,-0.09375],"type":"VEC3"},{"bufferView":74,"componentType":5126,"count":52,"max":[3],"min":[0],"type":"SCALAR"},{"bufferView":75,"componentType":5126,"count":52,"max":[0.32152828574180603,0.030479898676276207,0.41047146916389465,0.9714500904083252],"min":[-0.21604935824871063,-0.2742961645126343,-0.3826834261417389,0.8504471182823181],"type":"VEC4"},{"bufferView":76,"componentType":5126,"count":31,"max":[2.9583332538604736],"min":[0],"type":"SCALAR"},{"bufferView":77,"componentType":5126,"count":31,"max":[-0.29296875,0.5859375,0.09363676607608795],"min":[-0.29296875,0.5859375,-0.09375],"type":"VEC3"},{"bufferView":78,"componentType":5126,"count":52,"max":[3],"min":[0],"type":"SCALAR"},{"bufferView":79,"componentType":5126,"count":52,"max":[0,0.0046540978364646435,0.15212339162826538,0.9999257326126099],"min":[-0.10659637302160263,-0.01592325232923031,-0.04361938685178757,0.9830303192138672],"type":"VEC4"},{"bufferView":80,"componentType":5126,"count":52,"max":[3],"min":[0],"type":"SCALAR"},{"bufferView":81,"componentType":5126,"count":52,"max":[0.236328125,0,0.005859375],"min":[-0.013671875,0,-0.119140625],"type":"VEC3"},{"bufferView":82,"componentType":5126,"count":52,"max":[3],"min":[0],"type":"SCALAR"},{"bufferView":83,"componentType":5126,"count":52,"max":[0,0.014157627709209919,0.06322598457336426,0.9999722838401794],"min":[-0.10575447231531143,-0.0065410858951509,-0.13268887996673584,0.9854996800422668],"type":"VEC4"},{"bufferView":84,"componentType":5126,"count":52,"max":[3],"min":[0],"type":"SCALAR"},{"bufferView":85,"componentType":5126,"count":52,"max":[0.013671875,0,0.005859375],"min":[-0.236328125,0,-0.119140625],"type":"VEC3"}],"materials":[{"pbrMetallicRoughness":{"metallicFactor":0,"roughnessFactor":1,"baseColorTexture":{"index":0}},"alphaMode":"MASK","alphaCutoff":0.05,"doubleSided":true}],"textures":[{"sampler":0,"source":0,"name":"SnaveSutit 2.0.png"}],"samplers":[{"magFilter":9728,"minFilter":9728,"wrapS":33071,"wrapT":33071}],"images":[{"mimeType":"image/png","uri":"data:image/png;base64,"}],"meshes":[{"primitives":[{"mode":4,"attributes":{"POSITION":0,"NORMAL":1,"TEXCOORD_0":2},"indices":3,"material":0}]},{"primitives":[{"mode":4,"attributes":{"POSITION":4,"NORMAL":5,"TEXCOORD_0":6},"indices":7,"material":0}]},{"primitives":[{"mode":4,"attributes":{"POSITION":8,"NORMAL":9,"TEXCOORD_0":10},"indices":11,"material":0}]},{"primitives":[{"mode":4,"attributes":{"POSITION":12,"NORMAL":13,"TEXCOORD_0":14},"indices":15,"material":0}]},{"primitives":[{"mode":4,"attributes":{"POSITION":16,"NORMAL":17,"TEXCOORD_0":18},"indices":19,"material":0}]},{"primitives":[{"mode":4,"attributes":{"POSITION":20,"NORMAL":21,"TEXCOORD_0":22},"indices":23,"material":0}]},{"primitives":[{"mode":4,"attributes":{"POSITION":24,"NORMAL":25,"TEXCOORD_0":26},"indices":27,"material":0}]},{"primitives":[{"mode":4,"attributes":{"POSITION":28,"NORMAL":29,"TEXCOORD_0":30},"indices":31,"material":0}]},{"primitives":[{"mode":4,"attributes":{"POSITION":32,"NORMAL":33,"TEXCOORD_0":34},"indices":35,"material":0}]},{"primitives":[{"mode":4,"attributes":{"POSITION":36,"NORMAL":37,"TEXCOORD_0":38},"indices":39,"material":0}]},{"primitives":[{"mode":4,"attributes":{"POSITION":40,"NORMAL":41,"TEXCOORD_0":42},"indices":43,"material":0}]},{"primitives":[{"mode":4,"attributes":{"POSITION":44,"NORMAL":45,"TEXCOORD_0":46},"indices":47,"material":0}]},{"primitives":[{"mode":4,"attributes":{"POSITION":48,"NORMAL":49,"TEXCOORD_0":50},"indices":51,"material":0}]},{"primitives":[{"mode":4,"attributes":{"POSITION":52,"NORMAL":53,"TEXCOORD_0":54},"indices":55,"material":0}]},{"primitives":[{"mode":4,"attributes":{"POSITION":56,"NORMAL":57,"TEXCOORD_0":58},"indices":59,"material":0}]},{"primitives":[{"mode":4,"attributes":{"POSITION":60,"NORMAL":61,"TEXCOORD_0":62},"indices":63,"material":0}]}],"animations":[{"name":"floss","samplers":[{"input":64,"output":65,"interpolation":"LINEAR"},{"input":66,"output":67,"interpolation":"LINEAR"},{"input":68,"output":69,"interpolation":"LINEAR"},{"input":70,"output":71,"interpolation":"LINEAR"},{"input":72,"output":73,"interpolation":"LINEAR"},{"input":74,"output":75,"interpolation":"LINEAR"},{"input":76,"output":77,"interpolation":"LINEAR"},{"input":78,"output":79,"interpolation":"LINEAR"},{"input":80,"output":81,"interpolation":"LINEAR"},{"input":82,"output":83,"interpolation":"LINEAR"},{"input":84,"output":85,"interpolation":"LINEAR"}],"channels":[{"sampler":0,"target":{"node":7,"path":"rotation"}},{"sampler":1,"target":{"node":7,"path":"translation"}},{"sampler":2,"target":{"node":4,"path":"rotation"}},{"sampler":3,"target":{"node":16,"path":"rotation"}},{"sampler":4,"target":{"node":16,"path":"translation"}},{"sampler":5,"target":{"node":21,"path":"rotation"}},{"sampler":6,"target":{"node":21,"path":"translation"}},{"sampler":7,"target":{"node":10,"path":"rotation"}},{"sampler":8,"target":{"node":10,"path":"translation"}},{"sampler":9,"target":{"node":13,"path":"rotation"}},{"sampler":10,"target":{"node":13,"path":"translation"}}]}]}